# xmcd
#
# Track frame offsets: 
#        150
#        20464
#        24396
#        49596
#        75338
#        104439
#        120803
#        164142
#        189976
#        214690
#        235985
#        267204
#        298171
#
# Disc length: 4466 seconds
#
# Revision: 0
# Processed by: cddbd v1.5.2PL0 Copyright (c) Steve Scherf et al.
# Submitted via: ExactAudioCopy v1.1
#
DISCID=a811700d
DTITLE=David Grisman Quintet, 2007.11.03 - CD2_David Grisman Quintet a
DTITLE=t Jazz Alley
DYEAR=2008
DGENRE=Bluegrass
TTITLE0=EMD
TTITLE1=Fiddler Medley (Intro)
TTITLE2=Blues For Vassar
TTITLE3=Steppin' With Stephane
TTITLE4=Swingin' With Svend
TTITLE5=Band Intros
TTITLE6=Bag's Groove
TTITLE7=Waltz For Lucy
TTITLE8=Mad Max
TTITLE9=In A Sentimental Mood
TTITLE10=Dwang's Waltz
TTITLE11=April's Wedding Bossa
TTITLE12=Gypsy Swing
EXTD=
EXTT0=
EXTT1=
EXTT2=
EXTT3=
EXTT4=
EXTT5=
EXTT6=
EXTT7=
EXTT8=
EXTT9=
EXTT10=
EXTT11=
EXTT12=
PLAYORDER=
